<?xml version="1.0" encoding="UTF-8" standalone="no"?>
<!DOCTYPE svg PUBLIC "-//W3C//DTD SVG 1.1//EN"
 "http://www.w3.org/Graphics/SVG/1.1/DTD/svg11.dtd">
<!-- Generated by graphviz version 2.40.1 (0)
 -->
<!-- Title: %3 Pages: 1 -->
<svg width="582pt" height="44pt"
 viewBox="0.00 0.00 582.09 44.00" xmlns="http://www.w3.org/2000/svg" xmlns:xlink="http://www.w3.org/1999/xlink">
<g id="graph0" class="graph" transform="scale(1 1) rotate(0) translate(4 40)">
<title>%3</title>
<polygon fill="#ffffff" stroke="transparent" points="-4,4 -4,-40 578.0911,-40 578.0911,4 -4,4"/>
<!-- browser -->
<g id="node1" class="node">
<title>browser</title>
<ellipse fill="#848484" stroke="#585858" cx="50.0456" cy="-18" rx="50.0912" ry="18"/>
<text text-anchor="middle" x="50.0456" y="-14.3" font-family="Times,serif" font-size="14.00" fill="#ffffff">Browser</text>
</g>
<!-- frontend -->
<g id="node2" class="node">
<title>frontend</title>
<path fill="#61dafb" stroke="#585858" d="M353.0911,-36C353.0911,-36 242.0911,-36 242.0911,-36 236.0911,-36 230.0911,-30 230.0911,-24 230.0911,-24 230.0911,-12 230.0911,-12 230.0911,-6 236.0911,0 242.0911,0 242.0911,0 353.0911,0 353.0911,0 359.0911,0 365.0911,-6 365.0911,-12 365.0911,-12 365.0911,-24 365.0911,-24 365.0911,-30 359.0911,-36 353.0911,-36"/>
<text text-anchor="middle" x="297.5911" y="-14.3" font-family="Times,serif" font-size="14.00" fill="#ffffff">Frontend Server</text>
</g>
<!-- browser&#45;&gt;frontend -->
<g id="edge1" class="edge">
<title>browser&#45;&gt;frontend</title>
<path fill="none" stroke="#000000" d="M100.1401,-18C134.3776,-18 180.4407,-18 219.4641,-18"/>
<polygon fill="#000000" stroke="#000000" points="219.7437,-21.5001 229.7436,-18 219.7436,-14.5001 219.7437,-21.5001"/>
<text text-anchor="middle" x="165.0911" y="-21.8" font-family="Times,serif" font-size="14.00" fill="#000000">/api/message</text>
</g>
<!-- backend -->
<g id="node3" class="node">
<title>backend</title>
<path fill="#782b90" stroke="#585858" d="M562.0911,-36C562.0911,-36 507.0911,-36 507.0911,-36 501.0911,-36 495.0911,-30 495.0911,-24 495.0911,-24 495.0911,-12 495.0911,-12 495.0911,-6 501.0911,0 507.0911,0 507.0911,0 562.0911,0 562.0911,0 568.0911,0 574.0911,-6 574.0911,-12 574.0911,-12 574.0911,-24 574.0911,-24 574.0911,-30 568.0911,-36 562.0911,-36"/>
<text text-anchor="middle" x="534.5911" y="-14.3" font-family="Times,serif" font-size="14.00" fill="#ffffff">Backend</text>
</g>
<!-- frontend&#45;&gt;backend -->
<g id="edge2" class="edge">
<title>frontend&#45;&gt;backend</title>
<path fill="none" stroke="#000000" d="M365.1886,-18C403.2539,-18 449.9712,-18 484.6977,-18"/>
<polygon fill="#000000" stroke="#000000" points="485.067,-21.5001 495.067,-18 485.067,-14.5001 485.067,-21.5001"/>
<text text-anchor="middle" x="430.0911" y="-21.8" font-family="Times,serif" font-size="14.00" fill="#000000">/api/message</text>
</g>
</g>
</svg>
