<?xml version="1.0" encoding="UTF-8" standalone="no"?>
<!DOCTYPE svg PUBLIC "-//W3C//DTD SVG 1.1//EN"
 "http://www.w3.org/Graphics/SVG/1.1/DTD/svg11.dtd">
<!-- Generated by graphviz version 2.40.1 (0)
 -->
<!-- Title: %3 Pages: 1 -->
<svg width="340pt" height="44pt"
 viewBox="0.00 0.00 340.09 44.00" xmlns="http://www.w3.org/2000/svg" xmlns:xlink="http://www.w3.org/1999/xlink">
<g id="graph0" class="graph" transform="scale(1 1) rotate(0) translate(4 40)">
<title>%3</title>
<polygon fill="#ffffff" stroke="transparent" points="-4,4 -4,-40 336.0911,-40 336.0911,4 -4,4"/>
<!-- browser -->
<g id="node1" class="node">
<title>browser</title>
<ellipse fill="#848484" stroke="#585858" cx="50.0456" cy="-18" rx="50.0912" ry="18"/>
<text text-anchor="middle" x="50.0456" y="-14.3" font-family="Times,serif" font-size="14.00" fill="#ffffff">Browser</text>
</g>
<!-- frontend -->
<g id="node2" class="node">
<title>frontend</title>
<path fill="#61dafb" stroke="#585858" d="M320.0911,-36C320.0911,-36 209.0911,-36 209.0911,-36 203.0911,-36 197.0911,-30 197.0911,-24 197.0911,-24 197.0911,-12 197.0911,-12 197.0911,-6 203.0911,0 209.0911,0 209.0911,0 320.0911,0 320.0911,0 326.0911,0 332.0911,-6 332.0911,-12 332.0911,-12 332.0911,-24 332.0911,-24 332.0911,-30 326.0911,-36 320.0911,-36"/>
<text text-anchor="middle" x="264.5911" y="-14.3" font-family="Times,serif" font-size="14.00" fill="#ffffff">Frontend Server</text>
</g>
<!-- browser&#45;&gt;frontend -->
<g id="edge1" class="edge">
<title>browser&#45;&gt;frontend</title>
<path fill="none" stroke="#000000" d="M100.347,-18C126.0505,-18 157.9017,-18 186.6937,-18"/>
<polygon fill="#000000" stroke="#000000" points="186.7352,-21.5001 196.7352,-18 186.7351,-14.5001 186.7352,-21.5001"/>
<text text-anchor="middle" x="148.5911" y="-21.8" font-family="Times,serif" font-size="14.00" fill="#000000">/index.js</text>
</g>
</g>
</svg>
